<svg width="320" height="80" viewBox="0 0 320 80" fill="none" xmlns="http://www.w3.org/2000/svg">
<g clip-path="url(#clip0_828_191)">
<rect width="320" height="80" fill="white"/>
<path d="M16.4119 32.4545H19.8565L23.1733 38.7188H23.3153L26.6321 32.4545H30.0767L24.7713 41.858V47H21.7173V41.858L16.4119 32.4545ZM34.3434 47.2131C33.2402 47.2131 32.2861 46.9787 31.4812 46.5099C30.681 46.0365 30.0631 45.3783 29.6275 44.5355C29.1919 43.688 28.9741 42.7055 28.9741 41.5881C28.9741 40.4612 29.1919 39.4763 29.6275 38.6335C30.0631 37.786 30.681 37.1278 31.4812 36.6591C32.2861 36.1856 33.2402 35.9489 34.3434 35.9489C35.4466 35.9489 36.3983 36.1856 37.1985 36.6591C38.0034 37.1278 38.6237 37.786 39.0593 38.6335C39.4949 39.4763 39.7127 40.4612 39.7127 41.5881C39.7127 42.7055 39.4949 43.688 39.0593 44.5355C38.6237 45.3783 38.0034 46.0365 37.1985 46.5099C36.3983 46.9787 35.4466 47.2131 34.3434 47.2131ZM34.3576 44.8693C34.8595 44.8693 35.2785 44.7273 35.6147 44.4432C35.9509 44.1544 36.2042 43.7614 36.3746 43.2642C36.5498 42.767 36.6374 42.2012 36.6374 41.5668C36.6374 40.9323 36.5498 40.3665 36.3746 39.8693C36.2042 39.3722 35.9509 38.9792 35.6147 38.6903C35.2785 38.4015 34.8595 38.2571 34.3576 38.2571C33.851 38.2571 33.4248 38.4015 33.0792 38.6903C32.7383 38.9792 32.4802 39.3722 32.305 39.8693C32.1346 40.3665 32.0494 40.9323 32.0494 41.5668C32.0494 42.2012 32.1346 42.767 32.305 43.2642C32.4802 43.7614 32.7383 44.1544 33.0792 44.4432C33.4248 44.7273 33.851 44.8693 34.3576 44.8693ZM48.6758 42.3551V36.0909H51.7013V47H48.7965V45.0185H48.6829C48.4367 45.6577 48.0271 46.1714 47.4542 46.5597C46.886 46.9479 46.1924 47.142 45.3732 47.142C44.6441 47.142 44.0025 46.9763 43.4485 46.6449C42.8945 46.3134 42.4613 45.8423 42.1488 45.2315C41.841 44.6207 41.6848 43.8892 41.68 43.0369V36.0909H44.7056V42.4972C44.7103 43.1411 44.8832 43.6501 45.2241 44.0241C45.565 44.3982 46.0219 44.5852 46.5948 44.5852C46.9594 44.5852 47.3003 44.5024 47.6175 44.3366C47.9348 44.1662 48.1905 43.9152 48.3846 43.5838C48.5835 43.2524 48.6805 42.8428 48.6758 42.3551ZM54.1214 47V36.0909H57.0547V37.9943H57.1683C57.3672 37.3172 57.701 36.8059 58.1697 36.4602C58.6385 36.1098 59.1783 35.9347 59.7891 35.9347C59.9406 35.9347 60.1039 35.9441 60.2791 35.9631C60.4543 35.982 60.6082 36.008 60.7408 36.0412V38.7259C60.5987 38.6832 60.4022 38.6454 60.1513 38.6122C59.9003 38.5791 59.6707 38.5625 59.4624 38.5625C59.0173 38.5625 58.6196 38.6596 58.2692 38.8537C57.9235 39.0431 57.6489 39.3082 57.4453 39.6491C57.2464 39.9901 57.147 40.383 57.147 40.8281V47H54.1214ZM62.3619 47V32.4545H65.4371V44.4645H71.6729V47H62.3619ZM78.5817 47.2131C77.4785 47.2131 76.5244 46.9787 75.7195 46.5099C74.9193 46.0365 74.3014 45.3783 73.8658 44.5355C73.4302 43.688 73.2124 42.7055 73.2124 41.5881C73.2124 40.4612 73.4302 39.4763 73.8658 38.6335C74.3014 37.786 74.9193 37.1278 75.7195 36.6591C76.5244 36.1856 77.4785 35.9489 78.5817 35.9489C79.6849 35.9489 80.6366 36.1856 81.4368 36.6591C82.2417 37.1278 82.862 37.786 83.2976 38.6335C83.7332 39.4763 83.951 40.4612 83.951 41.5881C83.951 42.7055 83.7332 43.688 83.2976 44.5355C82.862 45.3783 82.2417 46.0365 81.4368 46.5099C80.6366 46.9787 79.6849 47.2131 78.5817 47.2131ZM78.5959 44.8693C79.0978 44.8693 79.5168 44.7273 79.853 44.4432C80.1892 44.1544 80.4425 43.7614 80.6129 43.2642C80.7881 42.767 80.8757 42.2012 80.8757 41.5668C80.8757 40.9323 80.7881 40.3665 80.6129 39.8693C80.4425 39.3722 80.1892 38.9792 79.853 38.6903C79.5168 38.4015 79.0978 38.2571 78.5959 38.2571C78.0893 38.2571 77.6631 38.4015 77.3175 38.6903C76.9766 38.9792 76.7185 39.3722 76.5433 39.8693C76.3729 40.3665 76.2876 40.9323 76.2876 41.5668C76.2876 42.2012 76.3729 42.767 76.5433 43.2642C76.7185 43.7614 76.9766 44.1544 77.3175 44.4432C77.6631 44.7273 78.0893 44.8693 78.5959 44.8693ZM90.8331 51.3182C89.853 51.3182 89.0125 51.1832 88.3118 50.9134C87.6158 50.6482 87.0618 50.286 86.6499 49.8267C86.2379 49.3674 85.9704 48.8513 85.8473 48.2784L88.6456 47.902C88.7308 48.1198 88.8658 48.3234 89.0504 48.5128C89.2351 48.7022 89.4789 48.8537 89.782 48.9673C90.0897 49.0857 90.4638 49.1449 90.9041 49.1449C91.5623 49.1449 92.1044 48.9839 92.5305 48.6619C92.9614 48.3447 93.1768 47.812 93.1768 47.0639V45.0682H93.049C92.9164 45.3712 92.7176 45.6577 92.4524 45.9276C92.1873 46.1974 91.8464 46.4176 91.4297 46.5881C91.013 46.7585 90.5159 46.8438 89.9382 46.8438C89.1191 46.8438 88.3733 46.6544 87.701 46.2756C87.0334 45.892 86.5007 45.3073 86.103 44.5213C85.71 43.7306 85.5135 42.7315 85.5135 41.5241C85.5135 40.2884 85.7147 39.2562 86.1172 38.4276C86.5196 37.599 87.0547 36.9787 87.7223 36.5668C88.3946 36.1548 89.1309 35.9489 89.9311 35.9489C90.5419 35.9489 91.0533 36.053 91.4652 36.2614C91.8771 36.465 92.2086 36.7206 92.4595 37.0284C92.7152 37.3314 92.9117 37.6297 93.049 37.9233H93.1626V36.0909H96.1669V47.1065C96.1669 48.0346 95.9396 48.8111 95.4851 49.4361C95.0305 50.0611 94.4008 50.5298 93.5959 50.8423C92.7957 51.1596 91.8748 51.3182 90.8331 51.3182ZM90.897 44.571C91.3847 44.571 91.7966 44.4503 92.1328 44.2088C92.4737 43.9626 92.7341 43.6122 92.9141 43.1577C93.0987 42.6984 93.1911 42.1491 93.1911 41.5099C93.1911 40.8707 93.1011 40.3168 92.9212 39.848C92.7412 39.3745 92.4808 39.0076 92.1399 38.7472C91.799 38.4867 91.3847 38.3565 90.897 38.3565C90.3999 38.3565 89.9808 38.4915 89.6399 38.7614C89.299 39.0265 89.041 39.3958 88.8658 39.8693C88.6906 40.3428 88.603 40.8897 88.603 41.5099C88.603 42.1397 88.6906 42.6842 88.8658 43.1435C89.0457 43.598 89.3037 43.9508 89.6399 44.2017C89.9808 44.4479 90.3999 44.571 90.897 44.571ZM103.504 47.2131C102.4 47.2131 101.446 46.9787 100.641 46.5099C99.8411 46.0365 99.2232 45.3783 98.7876 44.5355C98.352 43.688 98.1342 42.7055 98.1342 41.5881C98.1342 40.4612 98.352 39.4763 98.7876 38.6335C99.2232 37.786 99.8411 37.1278 100.641 36.6591C101.446 36.1856 102.4 35.9489 103.504 35.9489C104.607 35.9489 105.558 36.1856 106.359 36.6591C107.164 37.1278 107.784 37.786 108.219 38.6335C108.655 39.4763 108.873 40.4612 108.873 41.5881C108.873 42.7055 108.655 43.688 108.219 44.5355C107.784 45.3783 107.164 46.0365 106.359 46.5099C105.558 46.9787 104.607 47.2131 103.504 47.2131ZM103.518 44.8693C104.02 44.8693 104.439 44.7273 104.775 44.4432C105.111 44.1544 105.364 43.7614 105.535 43.2642C105.71 42.767 105.798 42.2012 105.798 41.5668C105.798 40.9323 105.71 40.3665 105.535 39.8693C105.364 39.3722 105.111 38.9792 104.775 38.6903C104.439 38.4015 104.02 38.2571 103.518 38.2571C103.011 38.2571 102.585 38.4015 102.239 38.6903C101.898 38.9792 101.64 39.3722 101.465 39.8693C101.295 40.3665 101.21 40.9323 101.21 41.5668C101.21 42.2012 101.295 42.767 101.465 43.2642C101.64 43.7614 101.898 44.1544 102.239 44.4432C102.585 44.7273 103.011 44.8693 103.518 44.8693Z" fill="black"/>
<rect y="79" width="1440" height="1" fill="#CFCFCF"/>
<path d="M191.822 37.348C191.754 36.7429 191.473 36.2741 190.979 35.9418C190.484 35.6051 189.862 35.4368 189.112 35.4368C188.575 35.4368 188.111 35.522 187.719 35.6925C187.327 35.8587 187.022 36.0888 186.805 36.3828C186.591 36.6726 186.485 37.0028 186.485 37.3736C186.485 37.6847 186.557 37.9531 186.702 38.179C186.851 38.4048 187.045 38.5945 187.284 38.7479C187.527 38.897 187.787 39.0227 188.064 39.125C188.341 39.223 188.607 39.304 188.863 39.3679L190.141 39.7003C190.559 39.8026 190.987 39.9411 191.426 40.1158C191.865 40.2905 192.272 40.5206 192.647 40.8061C193.022 41.0916 193.324 41.4453 193.555 41.8672C193.789 42.2891 193.906 42.794 193.906 43.3821C193.906 44.1236 193.714 44.782 193.331 45.3572C192.952 45.9325 192.4 46.3864 191.675 46.7188C190.955 47.0511 190.084 47.2173 189.061 47.2173C188.081 47.2173 187.233 47.0618 186.517 46.7507C185.801 46.4396 185.241 45.9986 184.836 45.4276C184.431 44.8523 184.207 44.1705 184.165 43.3821H186.146C186.184 43.8551 186.338 44.2493 186.606 44.5646C186.879 44.8757 187.226 45.108 187.648 45.2614C188.074 45.4105 188.541 45.4851 189.048 45.4851C189.606 45.4851 190.103 45.3977 190.537 45.223C190.976 45.044 191.322 44.7969 191.573 44.4815C191.824 44.1619 191.95 43.7891 191.95 43.3629C191.95 42.9751 191.839 42.6577 191.618 42.4105C191.4 42.1634 191.104 41.9588 190.729 41.7969C190.358 41.6349 189.939 41.4922 189.47 41.3686L187.923 40.9467C186.875 40.6612 186.044 40.2415 185.43 39.6875C184.821 39.1335 184.516 38.4006 184.516 37.4886C184.516 36.7344 184.721 36.076 185.13 35.5135C185.539 34.951 186.093 34.5142 186.792 34.2031C187.491 33.8878 188.279 33.7301 189.157 33.7301C190.043 33.7301 190.825 33.8857 191.503 34.1967C192.184 34.5078 192.721 34.9361 193.113 35.4815C193.506 36.0227 193.71 36.6449 193.727 37.348H191.822ZM196.113 47V37.1818H198.024V47H196.113ZM197.078 35.6669C196.746 35.6669 196.46 35.5561 196.222 35.3345C195.987 35.1087 195.87 34.8402 195.87 34.5291C195.87 34.2138 195.987 33.9453 196.222 33.7237C196.46 33.4979 196.746 33.3849 197.078 33.3849C197.411 33.3849 197.694 33.4979 197.928 33.7237C198.167 33.9453 198.286 34.2138 198.286 34.5291C198.286 34.8402 198.167 35.1087 197.928 35.3345C197.694 35.5561 197.411 35.6669 197.078 35.6669ZM204.712 50.8864C203.932 50.8864 203.261 50.7841 202.698 50.5795C202.14 50.375 201.684 50.1044 201.33 49.7678C200.977 49.4311 200.713 49.0625 200.538 48.6619L202.181 47.9844C202.296 48.1719 202.449 48.37 202.641 48.5788C202.837 48.7919 203.101 48.973 203.433 49.1222C203.77 49.2713 204.203 49.3459 204.731 49.3459C205.455 49.3459 206.054 49.169 206.527 48.8153C207 48.4659 207.237 47.9077 207.237 47.1406V45.2102H207.115C207 45.419 206.834 45.6513 206.617 45.907C206.404 46.1626 206.11 46.3842 205.735 46.5717C205.36 46.7592 204.872 46.853 204.271 46.853C203.495 46.853 202.796 46.6719 202.174 46.3097C201.556 45.9432 201.066 45.4041 200.704 44.6925C200.346 43.9766 200.167 43.0966 200.167 42.0526C200.167 41.0085 200.344 40.1136 200.698 39.3679C201.056 38.6222 201.546 38.0511 202.168 37.6548C202.79 37.2543 203.495 37.054 204.284 37.054C204.893 37.054 205.385 37.1562 205.76 37.3608C206.135 37.5611 206.427 37.7955 206.636 38.0639C206.849 38.3324 207.013 38.5689 207.128 38.7734H207.269V37.1818H209.142V47.2173C209.142 48.0611 208.945 48.7536 208.553 49.2947C208.161 49.8359 207.631 50.2365 206.962 50.4964C206.297 50.7564 205.547 50.8864 204.712 50.8864ZM204.693 45.2678C205.242 45.2678 205.707 45.1399 206.086 44.8842C206.47 44.6243 206.759 44.2536 206.955 43.772C207.156 43.2862 207.256 42.7045 207.256 42.027C207.256 41.3665 207.158 40.7848 206.962 40.282C206.766 39.7791 206.478 39.3871 206.099 39.1058C205.72 38.8203 205.251 38.6776 204.693 38.6776C204.117 38.6776 203.638 38.8267 203.254 39.125C202.871 39.419 202.581 39.8196 202.385 40.3267C202.193 40.8338 202.097 41.4006 202.097 42.027C202.097 42.6705 202.195 43.2351 202.392 43.7209C202.588 44.2067 202.877 44.5859 203.261 44.8587C203.649 45.1314 204.126 45.2678 204.693 45.2678ZM213.616 41.1705V47H211.705V37.1818H213.539V38.7798H213.661C213.887 38.2599 214.24 37.8423 214.722 37.527C215.208 37.2116 215.819 37.054 216.556 37.054C217.225 37.054 217.811 37.1946 218.314 37.4759C218.817 37.7528 219.207 38.1662 219.484 38.7159C219.761 39.2656 219.899 39.9453 219.899 40.755V47H217.988V40.9851C217.988 40.2734 217.803 39.7173 217.432 39.3168C217.061 38.9119 216.552 38.7095 215.904 38.7095C215.461 38.7095 215.067 38.8054 214.722 38.9972C214.381 39.1889 214.11 39.4702 213.91 39.8409C213.714 40.2074 213.616 40.6506 213.616 41.1705ZM233.446 42.9283V37.1818H235.363V47H233.484V45.2997H233.382C233.156 45.8239 232.794 46.2607 232.295 46.6101C231.801 46.9553 231.185 47.1278 230.448 47.1278C229.817 47.1278 229.259 46.9893 228.773 46.7124C228.292 46.4311 227.912 46.0156 227.635 45.4659C227.363 44.9162 227.226 44.2365 227.226 43.4268V37.1818H229.137V43.1967C229.137 43.8658 229.323 44.3984 229.694 44.7947C230.064 45.1911 230.546 45.3892 231.138 45.3892C231.496 45.3892 231.852 45.2997 232.206 45.1207C232.564 44.9418 232.86 44.6712 233.094 44.3089C233.333 43.9467 233.45 43.4865 233.446 42.9283ZM237.931 50.6818V37.1818H239.798V38.7734H239.958C240.068 38.5689 240.228 38.3324 240.437 38.0639C240.646 37.7955 240.936 37.5611 241.306 37.3608C241.677 37.1562 242.167 37.054 242.776 37.054C243.569 37.054 244.276 37.2543 244.899 37.6548C245.521 38.0554 246.009 38.6328 246.362 39.3871C246.72 40.1413 246.899 41.049 246.899 42.1101C246.899 43.1712 246.722 44.081 246.369 44.8395C246.015 45.5937 245.529 46.1754 244.911 46.5845C244.294 46.9893 243.588 47.1918 242.796 47.1918C242.199 47.1918 241.711 47.0916 241.332 46.8913C240.957 46.6911 240.663 46.4567 240.45 46.1882C240.237 45.9197 240.073 45.6811 239.958 45.4723H239.843V50.6818H237.931ZM239.804 42.0909C239.804 42.7812 239.904 43.3864 240.105 43.9062C240.305 44.4261 240.595 44.8331 240.974 45.1271C241.353 45.4169 241.818 45.5618 242.367 45.5618C242.938 45.5618 243.416 45.4105 243.799 45.108C244.183 44.8011 244.472 44.3857 244.669 43.8615C244.869 43.3374 244.969 42.7472 244.969 42.0909C244.969 41.4432 244.871 40.8615 244.675 40.3459C244.483 39.8303 244.193 39.4233 243.806 39.125C243.422 38.8267 242.943 38.6776 242.367 38.6776C241.813 38.6776 241.345 38.8203 240.961 39.1058C240.582 39.3913 240.294 39.7898 240.098 40.3011C239.902 40.8125 239.804 41.4091 239.804 42.0909Z" fill="#2F71E5"/>
<rect x="260" y="18" width="44" height="44" fill="white"/>
<rect x="266" y="31" width="32" height="2" fill="#2F71E5"/>
<rect x="266" y="39" width="32" height="2" fill="#2F71E5"/>
<rect x="266" y="47" width="32" height="2" fill="#2F71E5"/>
</g>
<defs>
<clipPath id="clip0_828_191">
<rect width="320" height="80" fill="white"/>
</clipPath>
</defs>
</svg>
